<svg width="16" height="17" viewBox="0 0 16 17" fill="none" xmlns="http://www.w3.org/2000/svg">
<path d="M15.36 1.94H12V0.66C12 0.572 11.928 0.5 11.84 0.5H10.72C10.632 0.5 10.56 0.572 10.56 0.66V1.94H5.44V0.66C5.44 0.572 5.368 0.5 5.28 0.5H4.16C4.072 0.5 4 0.572 4 0.66V1.94H0.64C0.286 1.94 0 2.226 0 2.58V15.86C0 16.214 0.286 16.5 0.64 16.5H15.36C15.714 16.5 16 16.214 16 15.86V2.58C16 2.226 15.714 1.94 15.36 1.94ZM14.56 15.06H1.44V7.46H14.56V15.06ZM1.44 6.1V3.38H4V4.34C4 4.428 4.072 4.5 4.16 4.5H5.28C5.368 4.5 5.44 4.428 5.44 4.34V3.38H10.56V4.34C10.56 4.428 10.632 4.5 10.72 4.5H11.84C11.928 4.5 12 4.428 12 4.34V3.38H14.56V6.1H1.44Z" fill="#767676"/>
</svg>
