<svg width="35" height="35" viewBox="0 0 35 35" fill="none" xmlns="http://www.w3.org/2000/svg">
<path d="M17.5125 19.3242H15.7085V16.8571H17.5125C17.8317 16.8294 18.1508 16.9403 18.4006 17.1759C18.6365 17.4115 18.7614 17.7442 18.7475 18.0907C18.7614 18.4372 18.6365 18.7698 18.4006 19.0054C18.1647 19.2411 17.8455 19.3519 17.5125 19.3242ZM15.7085 13.5446H17.4154C17.8455 13.503 18.2618 13.7109 18.4839 14.0851C18.7059 14.4732 18.7059 14.9583 18.4839 15.3325C18.2618 15.7067 17.8455 15.9285 17.4154 15.8731H15.7085V13.5446ZM18.8863 16.5383L18.4561 16.3304L18.8863 16.1225C19.4136 15.8315 19.7467 15.2632 19.7467 14.6395C19.7467 13.3367 18.9279 12.5605 17.5541 12.5605H14.6261V20.3083H17.679C19.0389 20.3083 19.8577 19.5044 19.8577 18.1738C19.8854 17.467 19.4969 16.8155 18.8863 16.5383ZM10.1856 19.2411V13.6277H11.2124V18.257H13.5854V19.2272H10.1856V19.2411ZM23.1048 19.2411C22.5914 19.2688 22.0918 19.0886 21.7172 18.7144C21.3425 18.3402 21.1343 17.8273 21.1482 17.3006V13.6416H22.189V17.2452C22.1612 17.6056 22.3416 17.9521 22.633 18.1323C22.9244 18.3263 23.2991 18.3263 23.5905 18.1323C23.8819 17.9382 24.0623 17.6056 24.0346 17.2452V13.6277H25.0615V17.2868C25.0615 17.8273 24.8533 18.3402 24.4925 18.7005C24.1178 19.0747 23.6183 19.2688 23.1048 19.2411ZM17.4986 6.68382C13.5854 6.68382 10.0607 9.09547 8.56198 12.7823C7.06329 16.469 7.8959 20.7241 10.6574 23.5516C13.4188 26.379 17.5819 27.2245 21.1898 25.6999C24.7978 24.1753 27.1568 20.5716 27.1568 16.5661C27.1568 11.119 22.8273 6.68382 17.4986 6.68382ZM17.4986 26.0464C13.7519 26.0464 10.366 23.7456 8.93665 20.1974C7.50735 16.6492 8.29832 12.5744 10.9488 9.87164C13.5992 7.15506 17.5819 6.35117 21.0511 7.82034C24.5064 9.28951 26.7683 12.7407 26.7683 16.5799C26.7544 21.7913 22.6053 26.0325 17.4986 26.0464ZM17.4986 6.06011C13.3356 6.06011 9.58886 8.62423 7.99303 12.5466C6.39721 16.469 7.28532 21.0013 10.2133 24.0089C13.1552 27.0166 17.568 27.9175 21.4119 26.2959C25.2557 24.6742 27.7535 20.835 27.7535 16.5799C27.7674 10.7725 23.1742 6.06011 17.4986 6.06011ZM17.4986 28.0561C12.9609 28.0561 8.85339 25.2563 7.1188 20.9597C5.3842 16.6631 6.3417 11.7289 9.54723 8.44405C12.7528 5.1592 17.5958 4.17514 21.7865 5.94923C25.9773 7.72332 28.7249 11.9229 28.711 16.5661C28.711 22.914 23.6877 28.0422 17.4986 28.0561ZM23.4656 0.141849C21.4119 -0.343255 18.914 0.571511 18.914 0.571511C18.47 0.737832 17.9982 0.820993 17.5125 0.820993C17.0268 0.834853 16.5411 0.765552 16.0832 0.59923C16.0832 0.59923 13.5715 -0.343255 11.5316 0.169569C11.5316 0.169569 9.51948 0.557651 9.99129 3.21879C9.99129 3.21879 10.1023 1.15363 12.6556 1.15363C12.6556 1.15363 13.6131 1.11205 15.6253 2.05454C15.8057 2.15156 15.9999 2.23472 16.1942 2.30402C16.3191 2.3456 16.4579 2.38718 16.6244 2.4149L16.7631 2.44262C16.8187 2.45648 16.888 2.47034 16.9435 2.47034C17.3182 2.52578 17.6929 2.52578 18.0537 2.47034L18.2341 2.40104L18.4006 2.35946H18.47C18.5671 2.33174 18.6643 2.30402 18.7614 2.26244C18.9557 2.19314 19.15 2.10998 19.3442 2.01296C21.3425 1.08434 22.3139 1.11206 22.3139 1.11206C24.8672 1.11206 24.9782 3.17721 24.9782 3.17721C25.4778 0.543791 23.4517 0.141849 23.4656 0.141849ZM0.0138947 17.2036C0.29143 15.0553 2.0399 12.9763 2.0399 12.9763C2.35907 12.6021 2.60885 12.1863 2.77537 11.715C2.94189 11.2576 3.02515 10.7725 3.03903 10.2736C3.03903 10.2736 3.03903 7.51542 4.21855 5.72747C4.21855 5.72747 5.28707 3.93951 7.57673 5.35324C7.57673 5.35324 5.62011 4.70182 4.71812 7.16892C4.71812 7.16892 4.34344 8.05596 4.49609 10.3429C4.52384 10.5508 4.53772 10.7725 4.52384 10.9943C4.52384 11.1468 4.50997 11.2992 4.49609 11.4378C4.49609 11.4933 4.49609 11.5348 4.46834 11.5764L4.42671 11.7705C4.34344 12.1447 4.20468 12.5051 4.02428 12.8377C3.99653 12.8931 3.96877 12.9347 3.94102 12.9902L3.84388 13.1426C3.83 13.1565 3.81613 13.1842 3.80225 13.1981C3.74674 13.2812 3.67736 13.3644 3.60798 13.4475C3.46921 13.6 3.33044 13.7525 3.1778 13.8911C1.60972 15.5127 1.29056 16.4413 1.29056 16.4413C0.388567 18.8946 2.27581 19.7539 2.27581 19.7539C-0.319148 19.2688 0.0138947 17.2036 0.0138947 17.2036ZM34.9972 17.2175C34.7197 15.0692 32.9573 12.9902 32.9573 12.9902C32.652 12.6159 32.4023 12.2001 32.2357 11.7289C32.0553 11.2715 31.9721 10.7864 31.9721 10.2874C31.9721 10.2874 31.9721 7.52928 30.7926 5.72747C30.7926 5.72747 29.724 3.93951 27.4205 5.35324C27.4205 5.35324 29.391 4.70182 30.293 7.16892C30.293 7.16892 30.6677 8.06982 30.515 10.3567C30.4873 10.5646 30.4734 10.7864 30.4734 11.0082C30.4734 11.1468 30.4734 11.2992 30.515 11.4517V11.5903C30.515 11.6319 30.5428 11.715 30.5567 11.7843C30.6399 12.1586 30.7787 12.5189 30.9591 12.8516L31.0423 13.004L31.1395 13.1565L31.1811 13.2119C31.2366 13.2951 31.306 13.3921 31.3754 13.4614C31.5141 13.6139 31.6529 13.7663 31.8056 13.9049C33.3875 15.4988 33.6928 16.4413 33.6928 16.4413C34.6087 18.9084 32.7076 19.7678 32.7076 19.7678C35.3441 19.2688 34.9833 17.1898 34.9833 17.1898L34.9972 17.2175ZM2.88638 26.4622C4.34344 28.0561 6.99391 28.6798 6.99391 28.6798C7.93753 28.9154 8.77013 29.4837 9.35296 30.2737C9.35296 30.2737 10.9488 32.519 12.947 33.2675C12.947 33.2675 14.862 34.0852 15.9305 31.5488C15.9305 31.5488 14.6816 33.2675 12.5307 31.7983C12.5307 31.7983 11.6981 31.2855 10.5186 29.3312C10.4215 29.1372 10.2966 28.957 10.1717 28.7768C10.0884 28.6521 9.99129 28.5412 9.88027 28.4303L9.78314 28.3333L9.64437 28.2085C9.36683 27.9452 9.04767 27.7373 8.71463 27.571L8.56198 27.5017L8.39546 27.4324L8.32608 27.4047C8.22894 27.3631 8.1318 27.3354 8.03466 27.3215C7.82651 27.2661 7.61836 27.2383 7.39633 27.2245C5.2038 26.878 4.39895 26.2959 4.39895 26.2959C2.23418 24.8267 3.30269 22.9972 3.30269 22.9972C1.41545 24.9791 2.90026 26.4622 2.88638 26.4622ZM32.0831 26.4622C30.626 28.0561 27.9895 28.6798 27.9895 28.6798C27.0458 28.9154 26.1993 29.4698 25.6165 30.2737C25.6165 30.2737 24.0346 32.519 22.0363 33.2675C22.0363 33.2675 20.1213 34.0852 19.0528 31.5488C19.0528 31.5488 20.3017 33.2675 22.4526 31.7983C22.4526 31.7983 23.2852 31.2855 24.4509 29.3312C24.548 29.1372 24.6729 28.957 24.7978 28.7768C24.8811 28.6659 24.9782 28.5412 25.0892 28.4303C25.117 28.3887 25.1586 28.361 25.1863 28.3333L25.3251 28.2085C25.6026 27.9591 25.9218 27.7373 26.2687 27.571L26.4214 27.5017L26.5879 27.4324L26.6573 27.4047C26.8377 27.3354 26.9487 27.3215 26.9487 27.3215C27.1568 27.2661 27.3789 27.2383 27.587 27.2106C29.7796 26.8641 30.5844 26.282 30.5844 26.282C32.7353 24.8128 31.6807 22.9833 31.6807 22.9833C33.5679 24.9791 32.0831 26.4622 32.0831 26.4622ZM17.6235 35L18.5394 28.86H17.6235H16.7076L17.6235 35ZM34.7336 22.1794L29.3077 19.2411L29.0163 20.1836L28.7249 21.126L34.7336 22.1794ZM0.249799 22.1794L5.67561 19.2411L5.96703 20.1836L6.25844 21.126L0.249799 22.1794ZM28.1976 1.33382L25.2974 6.94716L24.5203 6.36503L23.7432 5.78291L28.1976 1.33382ZM6.78575 1.33382L9.686 6.94716L10.4631 6.36503L11.2402 5.78291L6.78575 1.33382Z" fill="#131313"/>
</svg>
