<svg width="12" height="12" viewBox="0 0 12 12" fill="none" xmlns="http://www.w3.org/2000/svg">
<path d="M10.4571 1.79999H1.54281C1.35317 1.79999 1.19995 1.97061 1.19995 2.18181V9.81817C1.19995 10.0294 1.35317 10.2 1.54281 10.2H10.4571C10.6467 10.2 10.8 10.0294 10.8 9.81817V2.18181C10.8 1.97061 10.6467 1.79999 10.4571 1.79999ZM1.97138 2.65908H10.0285V4.0909H1.97138V2.65908ZM10.0285 9.3409H1.97138V5.1409H10.0285V9.3409ZM7.48924 8.57726H9.25709C9.30424 8.57726 9.34281 8.53431 9.34281 8.48181V7.62272C9.34281 7.57022 9.30424 7.52726 9.25709 7.52726H7.48924C7.44209 7.52726 7.40352 7.57022 7.40352 7.62272V8.48181C7.40352 8.53431 7.44209 8.57726 7.48924 8.57726Z" fill="#131313"/>
</svg>
